<mxfile host="app.diagrams.net" modified="2023-04-23T04:46:44.523Z" agent="Mozilla/5.0 (Windows NT 10.0; Win64; x64) AppleWebKit/537.36 (KHTML, like Gecko) Chrome/112.0.0.0 Safari/537.36" etag="U9xyI1SaJvKTgS_F7fIk" version="21.2.1" type="device">
  <diagram name="Página-1" id="bEtkFy80dxXx5cNLbP9G">
    <mxGraphModel dx="1434" dy="764" grid="1" gridSize="10" guides="1" tooltips="1" connect="1" arrows="1" fold="1" page="1" pageScale="1" pageWidth="827" pageHeight="1169" math="0" shadow="0">
      <root>
        <mxCell id="0" />
        <mxCell id="1" parent="0" />
        <mxCell id="12DK1fhjuaxPS7Sdq3nP-166" value="Usuario" style="swimlane;fontStyle=1;align=center;verticalAlign=top;childLayout=stackLayout;horizontal=1;startSize=26;horizontalStack=0;resizeParent=1;resizeParentMax=0;resizeLast=0;collapsible=1;marginBottom=0;whiteSpace=wrap;html=1;" vertex="1" parent="1">
          <mxGeometry x="140" y="30" width="210" height="300" as="geometry" />
        </mxCell>
        <mxCell id="12DK1fhjuaxPS7Sdq3nP-167" value="-ID&lt;br style=&quot;font-family: Helvetica, Arial, sans-serif; font-variant-ligatures: none; background-color: rgb(255, 255, 255);&quot;&gt;&lt;span style=&quot;font-family: Helvetica, Arial, sans-serif; font-variant-ligatures: none; background-color: rgb(255, 255, 255);&quot;&gt;-Nombre:String&lt;/span&gt;&lt;br style=&quot;font-family: Helvetica, Arial, sans-serif; font-variant-ligatures: none; background-color: rgb(255, 255, 255);&quot;&gt;&lt;span style=&quot;font-family: Helvetica, Arial, sans-serif; font-variant-ligatures: none; background-color: rgb(255, 255, 255);&quot;&gt;-Apellido:String&lt;/span&gt;&lt;br style=&quot;font-family: Helvetica, Arial, sans-serif; font-variant-ligatures: none; background-color: rgb(255, 255, 255);&quot;&gt;&lt;span style=&quot;font-family: Helvetica, Arial, sans-serif; font-variant-ligatures: none; background-color: rgb(255, 255, 255);&quot;&gt;-direccion:Varchar&lt;/span&gt;&lt;br style=&quot;font-family: Helvetica, Arial, sans-serif; font-variant-ligatures: none; background-color: rgb(255, 255, 255);&quot;&gt;&lt;span style=&quot;font-family: Helvetica, Arial, sans-serif; font-variant-ligatures: none; background-color: rgb(255, 255, 255);&quot;&gt;-Codigo postal:Varchar&lt;/span&gt;&lt;br style=&quot;font-family: Helvetica, Arial, sans-serif; font-variant-ligatures: none; background-color: rgb(255, 255, 255);&quot;&gt;&lt;span style=&quot;font-family: Helvetica, Arial, sans-serif; font-variant-ligatures: none; background-color: rgb(255, 255, 255);&quot;&gt;-Ciudad:Varchar&lt;/span&gt;&lt;br style=&quot;font-family: Helvetica, Arial, sans-serif; font-variant-ligatures: none; background-color: rgb(255, 255, 255);&quot;&gt;&lt;span style=&quot;font-family: Helvetica, Arial, sans-serif; font-variant-ligatures: none; background-color: rgb(255, 255, 255);&quot;&gt;-telefono:Int&lt;/span&gt;&lt;br style=&quot;font-family: Helvetica, Arial, sans-serif; font-variant-ligatures: none; background-color: rgb(255, 255, 255);&quot;&gt;&lt;span style=&quot;font-family: Helvetica, Arial, sans-serif; font-variant-ligatures: none; background-color: rgb(255, 255, 255);&quot;&gt;-mail:varchar&lt;/span&gt;&lt;br style=&quot;font-family: Helvetica, Arial, sans-serif; font-variant-ligatures: none; background-color: rgb(255, 255, 255);&quot;&gt;&lt;span style=&quot;font-family: Helvetica, Arial, sans-serif; font-variant-ligatures: none; background-color: rgb(255, 255, 255);&quot;&gt;-contraseña:Varchar&lt;/span&gt;" style="text;strokeColor=none;fillColor=none;align=left;verticalAlign=top;spacingLeft=4;spacingRight=4;overflow=hidden;rotatable=0;points=[[0,0.5],[1,0.5]];portConstraint=eastwest;whiteSpace=wrap;html=1;" vertex="1" parent="12DK1fhjuaxPS7Sdq3nP-166">
          <mxGeometry y="26" width="210" height="164" as="geometry" />
        </mxCell>
        <mxCell id="12DK1fhjuaxPS7Sdq3nP-168" value="" style="line;strokeWidth=1;fillColor=none;align=left;verticalAlign=middle;spacingTop=-1;spacingLeft=3;spacingRight=3;rotatable=0;labelPosition=right;points=[];portConstraint=eastwest;strokeColor=inherit;" vertex="1" parent="12DK1fhjuaxPS7Sdq3nP-166">
          <mxGeometry y="190" width="210" height="8" as="geometry" />
        </mxCell>
        <mxCell id="12DK1fhjuaxPS7Sdq3nP-169" value="+ login&lt;br style=&quot;font-family: Helvetica, Arial, sans-serif; font-variant-ligatures: none; background-color: rgb(255, 255, 255);&quot;&gt;&lt;span style=&quot;font-family: Helvetica, Arial, sans-serif; font-variant-ligatures: none; background-color: rgb(255, 255, 255);&quot;&gt;+verCalatolo()&lt;/span&gt;&lt;br style=&quot;font-family: Helvetica, Arial, sans-serif; font-variant-ligatures: none; background-color: rgb(255, 255, 255);&quot;&gt;&lt;span style=&quot;font-family: Helvetica, Arial, sans-serif; font-variant-ligatures: none; background-color: rgb(255, 255, 255);&quot;&gt;+OrdenarProductosPorDiseñlador()&lt;/span&gt;&lt;br style=&quot;font-family: Helvetica, Arial, sans-serif; font-variant-ligatures: none; background-color: rgb(255, 255, 255);&quot;&gt;&lt;span style=&quot;font-family: Helvetica, Arial, sans-serif; font-variant-ligatures: none; background-color: rgb(255, 255, 255);&quot;&gt;+OrdenarProductosPorPrecio()&lt;/span&gt;&lt;br style=&quot;font-family: Helvetica, Arial, sans-serif; font-variant-ligatures: none; background-color: rgb(255, 255, 255);&quot;&gt;&lt;span style=&quot;font-family: Helvetica, Arial, sans-serif; font-variant-ligatures: none; background-color: rgb(255, 255, 255);&quot;&gt;+SelecionarProductosPorcatalogo()&amp;nbsp; &amp;nbsp;+comunicarseConDiseñador()&lt;/span&gt;" style="text;strokeColor=none;fillColor=none;align=left;verticalAlign=top;spacingLeft=4;spacingRight=4;overflow=hidden;rotatable=0;points=[[0,0.5],[1,0.5]];portConstraint=eastwest;whiteSpace=wrap;html=1;" vertex="1" parent="12DK1fhjuaxPS7Sdq3nP-166">
          <mxGeometry y="198" width="210" height="102" as="geometry" />
        </mxCell>
        <mxCell id="12DK1fhjuaxPS7Sdq3nP-174" style="edgeStyle=orthogonalEdgeStyle;rounded=0;orthogonalLoop=1;jettySize=auto;html=1;entryX=0.005;entryY=0.922;entryDx=0;entryDy=0;entryPerimeter=0;" edge="1" parent="1" source="12DK1fhjuaxPS7Sdq3nP-170" target="12DK1fhjuaxPS7Sdq3nP-169">
          <mxGeometry relative="1" as="geometry">
            <mxPoint x="115" y="370" as="targetPoint" />
          </mxGeometry>
        </mxCell>
        <mxCell id="12DK1fhjuaxPS7Sdq3nP-170" value="UsuarioVisitante" style="swimlane;fontStyle=1;align=center;verticalAlign=top;childLayout=stackLayout;horizontal=1;startSize=26;horizontalStack=0;resizeParent=1;resizeParentMax=0;resizeLast=0;collapsible=1;marginBottom=0;whiteSpace=wrap;html=1;" vertex="1" parent="1">
          <mxGeometry x="10" y="395" width="210" height="190" as="geometry" />
        </mxCell>
        <mxCell id="12DK1fhjuaxPS7Sdq3nP-171" value="+ field: type" style="text;strokeColor=none;fillColor=none;align=left;verticalAlign=top;spacingLeft=4;spacingRight=4;overflow=hidden;rotatable=0;points=[[0,0.5],[1,0.5]];portConstraint=eastwest;whiteSpace=wrap;html=1;" vertex="1" parent="12DK1fhjuaxPS7Sdq3nP-170">
          <mxGeometry y="26" width="210" height="26" as="geometry" />
        </mxCell>
        <mxCell id="12DK1fhjuaxPS7Sdq3nP-172" value="" style="line;strokeWidth=1;fillColor=none;align=left;verticalAlign=middle;spacingTop=-1;spacingLeft=3;spacingRight=3;rotatable=0;labelPosition=right;points=[];portConstraint=eastwest;strokeColor=inherit;" vertex="1" parent="12DK1fhjuaxPS7Sdq3nP-170">
          <mxGeometry y="52" width="210" height="8" as="geometry" />
        </mxCell>
        <mxCell id="12DK1fhjuaxPS7Sdq3nP-173" value="+VerCalatolo()&lt;br style=&quot;font-family: Helvetica, Arial, sans-serif; font-variant-ligatures: none; background-color: rgb(255, 255, 255);&quot;&gt;&lt;span style=&quot;font-family: Helvetica, Arial, sans-serif; font-variant-ligatures: none; background-color: rgb(255, 255, 255);&quot;&gt;+OrdenarProductosPorDiseñlador()&lt;/span&gt;&lt;br style=&quot;font-family: Helvetica, Arial, sans-serif; font-variant-ligatures: none; background-color: rgb(255, 255, 255);&quot;&gt;&lt;span style=&quot;font-family: Helvetica, Arial, sans-serif; font-variant-ligatures: none; background-color: rgb(255, 255, 255);&quot;&gt;+OrdenarProductosPorPrecio()&lt;/span&gt;&lt;br style=&quot;font-family: Helvetica, Arial, sans-serif; font-variant-ligatures: none; background-color: rgb(255, 255, 255);&quot;&gt;&lt;span style=&quot;font-family: Helvetica, Arial, sans-serif; font-variant-ligatures: none; background-color: rgb(255, 255, 255);&quot;&gt;+SelecionarProductosPorcatalogo()&lt;/span&gt;&lt;br style=&quot;font-family: Helvetica, Arial, sans-serif; font-variant-ligatures: none; background-color: rgb(255, 255, 255);&quot;&gt;&lt;span style=&quot;font-family: Helvetica, Arial, sans-serif; font-variant-ligatures: none; background-color: rgb(255, 255, 255);&quot;&gt;-comunicarseconDiseñador(Sttring:&lt;/span&gt;&lt;br style=&quot;font-family: Helvetica, Arial, sans-serif; font-variant-ligatures: none; background-color: rgb(255, 255, 255);&quot;&gt;&lt;span style=&quot;font-family: Helvetica, Arial, sans-serif; font-variant-ligatures: none; background-color: rgb(255, 255, 255);&quot;&gt;soloUsuarios&lt;/span&gt;&lt;br style=&quot;font-family: Helvetica, Arial, sans-serif; font-variant-ligatures: none; background-color: rgb(255, 255, 255);&quot;&gt;&lt;span style=&quot;font-family: Helvetica, Arial, sans-serif; font-variant-ligatures: none; background-color: rgb(255, 255, 255);&quot;&gt;puedencomunicarse&lt;/span&gt;&lt;br style=&quot;font-family: Helvetica, Arial, sans-serif; font-variant-ligatures: none; background-color: rgb(255, 255, 255);&quot;&gt;&lt;span style=&quot;font-family: Helvetica, Arial, sans-serif; font-variant-ligatures: none; background-color: rgb(255, 255, 255);&quot;&gt;condiseñador) &amp;nbsp;&lt;/span&gt;" style="text;strokeColor=none;fillColor=none;align=left;verticalAlign=top;spacingLeft=4;spacingRight=4;overflow=hidden;rotatable=0;points=[[0,0.5],[1,0.5]];portConstraint=eastwest;whiteSpace=wrap;html=1;" vertex="1" parent="12DK1fhjuaxPS7Sdq3nP-170">
          <mxGeometry y="60" width="210" height="130" as="geometry" />
        </mxCell>
        <mxCell id="12DK1fhjuaxPS7Sdq3nP-179" style="edgeStyle=orthogonalEdgeStyle;rounded=0;orthogonalLoop=1;jettySize=auto;html=1;" edge="1" parent="1" source="12DK1fhjuaxPS7Sdq3nP-175">
          <mxGeometry relative="1" as="geometry">
            <mxPoint x="320" y="330" as="targetPoint" />
          </mxGeometry>
        </mxCell>
        <mxCell id="12DK1fhjuaxPS7Sdq3nP-175" value="UsuarioCliente" style="swimlane;fontStyle=1;align=center;verticalAlign=top;childLayout=stackLayout;horizontal=1;startSize=26;horizontalStack=0;resizeParent=1;resizeParentMax=0;resizeLast=0;collapsible=1;marginBottom=0;whiteSpace=wrap;html=1;" vertex="1" parent="1">
          <mxGeometry x="60" y="610" width="190" height="140" as="geometry" />
        </mxCell>
        <mxCell id="12DK1fhjuaxPS7Sdq3nP-176" value="+ field: type" style="text;strokeColor=none;fillColor=none;align=left;verticalAlign=top;spacingLeft=4;spacingRight=4;overflow=hidden;rotatable=0;points=[[0,0.5],[1,0.5]];portConstraint=eastwest;whiteSpace=wrap;html=1;" vertex="1" parent="12DK1fhjuaxPS7Sdq3nP-175">
          <mxGeometry y="26" width="190" height="26" as="geometry" />
        </mxCell>
        <mxCell id="12DK1fhjuaxPS7Sdq3nP-177" value="" style="line;strokeWidth=1;fillColor=none;align=left;verticalAlign=middle;spacingTop=-1;spacingLeft=3;spacingRight=3;rotatable=0;labelPosition=right;points=[];portConstraint=eastwest;strokeColor=inherit;" vertex="1" parent="12DK1fhjuaxPS7Sdq3nP-175">
          <mxGeometry y="52" width="190" height="8" as="geometry" />
        </mxCell>
        <mxCell id="12DK1fhjuaxPS7Sdq3nP-178" value="-comprarproductoEstandar()&lt;br style=&quot;font-family: Helvetica, Arial, sans-serif; font-variant-ligatures: none; background-color: rgb(255, 255, 255);&quot;&gt;&lt;span style=&quot;font-family: Helvetica, Arial, sans-serif; font-variant-ligatures: none; background-color: rgb(255, 255, 255);&quot;&gt;-comprarproductoPersonalizado()&lt;/span&gt;" style="text;strokeColor=none;fillColor=none;align=left;verticalAlign=top;spacingLeft=4;spacingRight=4;overflow=hidden;rotatable=0;points=[[0,0.5],[1,0.5]];portConstraint=eastwest;whiteSpace=wrap;html=1;" vertex="1" parent="12DK1fhjuaxPS7Sdq3nP-175">
          <mxGeometry y="60" width="190" height="80" as="geometry" />
        </mxCell>
        <mxCell id="12DK1fhjuaxPS7Sdq3nP-180" value="Administrador" style="swimlane;fontStyle=1;align=center;verticalAlign=top;childLayout=stackLayout;horizontal=1;startSize=26;horizontalStack=0;resizeParent=1;resizeParentMax=0;resizeLast=0;collapsible=1;marginBottom=0;whiteSpace=wrap;html=1;" vertex="1" parent="1">
          <mxGeometry x="414" y="180" width="190" height="230" as="geometry" />
        </mxCell>
        <mxCell id="12DK1fhjuaxPS7Sdq3nP-181" value="+ field: type" style="text;strokeColor=none;fillColor=none;align=left;verticalAlign=top;spacingLeft=4;spacingRight=4;overflow=hidden;rotatable=0;points=[[0,0.5],[1,0.5]];portConstraint=eastwest;whiteSpace=wrap;html=1;" vertex="1" parent="12DK1fhjuaxPS7Sdq3nP-180">
          <mxGeometry y="26" width="190" height="26" as="geometry" />
        </mxCell>
        <mxCell id="12DK1fhjuaxPS7Sdq3nP-182" value="" style="line;strokeWidth=1;fillColor=none;align=left;verticalAlign=middle;spacingTop=-1;spacingLeft=3;spacingRight=3;rotatable=0;labelPosition=right;points=[];portConstraint=eastwest;strokeColor=inherit;" vertex="1" parent="12DK1fhjuaxPS7Sdq3nP-180">
          <mxGeometry y="52" width="190" height="8" as="geometry" />
        </mxCell>
        <mxCell id="12DK1fhjuaxPS7Sdq3nP-183" value="-actualizarCatalogo()&lt;br style=&quot;font-family: Helvetica, Arial, sans-serif; font-variant-ligatures: none; background-color: rgb(255, 255, 255);&quot;&gt;&lt;span style=&quot;font-family: Helvetica, Arial, sans-serif; font-variant-ligatures: none; background-color: rgb(255, 255, 255);&quot;&gt;-agregarOpciondePago()&lt;/span&gt;&lt;br style=&quot;font-family: Helvetica, Arial, sans-serif; font-variant-ligatures: none; background-color: rgb(255, 255, 255);&quot;&gt;&lt;span style=&quot;font-family: Helvetica, Arial, sans-serif; font-variant-ligatures: none; background-color: rgb(255, 255, 255);&quot;&gt;-modificarmetododePago()&lt;/span&gt;&lt;br style=&quot;font-family: Helvetica, Arial, sans-serif; font-variant-ligatures: none; background-color: rgb(255, 255, 255);&quot;&gt;&lt;span style=&quot;font-family: Helvetica, Arial, sans-serif; font-variant-ligatures: none; background-color: rgb(255, 255, 255);&quot;&gt;-eliminarOpcionDePago()&lt;/span&gt;&lt;br style=&quot;font-family: Helvetica, Arial, sans-serif; font-variant-ligatures: none; background-color: rgb(255, 255, 255);&quot;&gt;&lt;span style=&quot;font-family: Helvetica, Arial, sans-serif; font-variant-ligatures: none; background-color: rgb(255, 255, 255);&quot;&gt;-seleccionarOpciondeEnvio()&lt;/span&gt;&lt;br style=&quot;font-family: Helvetica, Arial, sans-serif; font-variant-ligatures: none; background-color: rgb(255, 255, 255);&quot;&gt;&lt;span style=&quot;font-family: Helvetica, Arial, sans-serif; font-variant-ligatures: none; background-color: rgb(255, 255, 255);&quot;&gt;-modificarOpciondeEnvio()&lt;/span&gt;&lt;br style=&quot;font-family: Helvetica, Arial, sans-serif; font-variant-ligatures: none; background-color: rgb(255, 255, 255);&quot;&gt;&lt;span style=&quot;font-family: Helvetica, Arial, sans-serif; font-variant-ligatures: none; background-color: rgb(255, 255, 255);&quot;&gt;-elminaropciondeEnvio()&lt;/span&gt;&lt;br style=&quot;font-family: Helvetica, Arial, sans-serif; font-variant-ligatures: none; background-color: rgb(255, 255, 255);&quot;&gt;&lt;span style=&quot;font-family: Helvetica, Arial, sans-serif; font-variant-ligatures: none; background-color: rgb(255, 255, 255);&quot;&gt;-agregarDiseñador()&lt;/span&gt;&lt;br style=&quot;font-family: Helvetica, Arial, sans-serif; font-variant-ligatures: none; background-color: rgb(255, 255, 255);&quot;&gt;&lt;span style=&quot;font-family: Helvetica, Arial, sans-serif; font-variant-ligatures: none; background-color: rgb(255, 255, 255);&quot;&gt;-eliminarDiseñador()&lt;/span&gt;" style="text;strokeColor=none;fillColor=none;align=left;verticalAlign=top;spacingLeft=4;spacingRight=4;overflow=hidden;rotatable=0;points=[[0,0.5],[1,0.5]];portConstraint=eastwest;whiteSpace=wrap;html=1;" vertex="1" parent="12DK1fhjuaxPS7Sdq3nP-180">
          <mxGeometry y="60" width="190" height="170" as="geometry" />
        </mxCell>
        <mxCell id="12DK1fhjuaxPS7Sdq3nP-184" style="edgeStyle=orthogonalEdgeStyle;rounded=0;orthogonalLoop=1;jettySize=auto;html=1;entryX=1.019;entryY=0.98;entryDx=0;entryDy=0;entryPerimeter=0;" edge="1" parent="1" source="12DK1fhjuaxPS7Sdq3nP-183" target="12DK1fhjuaxPS7Sdq3nP-169">
          <mxGeometry relative="1" as="geometry">
            <Array as="points">
              <mxPoint x="380" y="325" />
              <mxPoint x="380" y="328" />
            </Array>
          </mxGeometry>
        </mxCell>
        <mxCell id="12DK1fhjuaxPS7Sdq3nP-190" style="edgeStyle=orthogonalEdgeStyle;rounded=0;orthogonalLoop=1;jettySize=auto;html=1;entryX=0.667;entryY=1;entryDx=0;entryDy=0;entryPerimeter=0;" edge="1" parent="1" source="12DK1fhjuaxPS7Sdq3nP-185" target="12DK1fhjuaxPS7Sdq3nP-169">
          <mxGeometry relative="1" as="geometry">
            <mxPoint x="280" y="360" as="targetPoint" />
            <Array as="points">
              <mxPoint x="410" y="380" />
              <mxPoint x="280" y="380" />
            </Array>
          </mxGeometry>
        </mxCell>
        <mxCell id="12DK1fhjuaxPS7Sdq3nP-185" value="Diseñador" style="swimlane;fontStyle=1;align=center;verticalAlign=top;childLayout=stackLayout;horizontal=1;startSize=26;horizontalStack=0;resizeParent=1;resizeParentMax=0;resizeLast=0;collapsible=1;marginBottom=0;whiteSpace=wrap;html=1;" vertex="1" parent="1">
          <mxGeometry x="370" y="450" width="160" height="140" as="geometry" />
        </mxCell>
        <mxCell id="12DK1fhjuaxPS7Sdq3nP-186" value="+ field: type" style="text;strokeColor=none;fillColor=none;align=left;verticalAlign=top;spacingLeft=4;spacingRight=4;overflow=hidden;rotatable=0;points=[[0,0.5],[1,0.5]];portConstraint=eastwest;whiteSpace=wrap;html=1;" vertex="1" parent="12DK1fhjuaxPS7Sdq3nP-185">
          <mxGeometry y="26" width="160" height="26" as="geometry" />
        </mxCell>
        <mxCell id="12DK1fhjuaxPS7Sdq3nP-187" value="" style="line;strokeWidth=1;fillColor=none;align=left;verticalAlign=middle;spacingTop=-1;spacingLeft=3;spacingRight=3;rotatable=0;labelPosition=right;points=[];portConstraint=eastwest;strokeColor=inherit;" vertex="1" parent="12DK1fhjuaxPS7Sdq3nP-185">
          <mxGeometry y="52" width="160" height="8" as="geometry" />
        </mxCell>
        <mxCell id="12DK1fhjuaxPS7Sdq3nP-188" value="-comunicarseCliente&lt;br style=&quot;font-family: Helvetica, Arial, sans-serif; font-variant-ligatures: none; background-color: rgb(255, 255, 255);&quot;&gt;&lt;span style=&quot;font-family: Helvetica, Arial, sans-serif; font-variant-ligatures: none; background-color: rgb(255, 255, 255);&quot;&gt;-comunicarseAdministrador&lt;/span&gt;" style="text;strokeColor=none;fillColor=none;align=left;verticalAlign=top;spacingLeft=4;spacingRight=4;overflow=hidden;rotatable=0;points=[[0,0.5],[1,0.5]];portConstraint=eastwest;whiteSpace=wrap;html=1;" vertex="1" parent="12DK1fhjuaxPS7Sdq3nP-185">
          <mxGeometry y="60" width="160" height="80" as="geometry" />
        </mxCell>
        <mxCell id="12DK1fhjuaxPS7Sdq3nP-191" value="Producto" style="swimlane;fontStyle=1;align=center;verticalAlign=top;childLayout=stackLayout;horizontal=1;startSize=26;horizontalStack=0;resizeParent=1;resizeParentMax=0;resizeLast=0;collapsible=1;marginBottom=0;whiteSpace=wrap;html=1;" vertex="1" parent="1">
          <mxGeometry x="610" y="94" width="190" height="170" as="geometry" />
        </mxCell>
        <mxCell id="12DK1fhjuaxPS7Sdq3nP-192" value="-ID&lt;br style=&quot;font-family: Helvetica, Arial, sans-serif; font-variant-ligatures: none; background-color: rgb(255, 255, 255);&quot;&gt;&lt;span style=&quot;font-family: Helvetica, Arial, sans-serif; font-variant-ligatures: none; background-color: rgb(255, 255, 255);&quot;&gt;-NombreProducto:Varchar&lt;/span&gt;&lt;br style=&quot;font-family: Helvetica, Arial, sans-serif; font-variant-ligatures: none; background-color: rgb(255, 255, 255);&quot;&gt;&lt;span style=&quot;font-family: Helvetica, Arial, sans-serif; font-variant-ligatures: none; background-color: rgb(255, 255, 255);&quot;&gt;-DescripcionProducto:Varchar&lt;/span&gt;&lt;br style=&quot;font-family: Helvetica, Arial, sans-serif; font-variant-ligatures: none; background-color: rgb(255, 255, 255);&quot;&gt;&lt;span style=&quot;font-family: Helvetica, Arial, sans-serif; font-variant-ligatures: none; background-color: rgb(255, 255, 255);&quot;&gt;-PrecioProducto:INT&lt;/span&gt;" style="text;strokeColor=none;fillColor=none;align=left;verticalAlign=top;spacingLeft=4;spacingRight=4;overflow=hidden;rotatable=0;points=[[0,0.5],[1,0.5]];portConstraint=eastwest;whiteSpace=wrap;html=1;" vertex="1" parent="12DK1fhjuaxPS7Sdq3nP-191">
          <mxGeometry y="26" width="190" height="84" as="geometry" />
        </mxCell>
        <mxCell id="12DK1fhjuaxPS7Sdq3nP-193" value="" style="line;strokeWidth=1;fillColor=none;align=left;verticalAlign=middle;spacingTop=-1;spacingLeft=3;spacingRight=3;rotatable=0;labelPosition=right;points=[];portConstraint=eastwest;strokeColor=inherit;" vertex="1" parent="12DK1fhjuaxPS7Sdq3nP-191">
          <mxGeometry y="110" width="190" height="8" as="geometry" />
        </mxCell>
        <mxCell id="12DK1fhjuaxPS7Sdq3nP-194" value="-modificarProducto&lt;br style=&quot;font-family: Helvetica, Arial, sans-serif; font-variant-ligatures: none; background-color: rgb(255, 255, 255);&quot;&gt;&lt;span style=&quot;font-family: Helvetica, Arial, sans-serif; font-variant-ligatures: none; background-color: rgb(255, 255, 255);&quot;&gt;-actualizarPrecio&lt;/span&gt;" style="text;strokeColor=none;fillColor=none;align=left;verticalAlign=top;spacingLeft=4;spacingRight=4;overflow=hidden;rotatable=0;points=[[0,0.5],[1,0.5]];portConstraint=eastwest;whiteSpace=wrap;html=1;" vertex="1" parent="12DK1fhjuaxPS7Sdq3nP-191">
          <mxGeometry y="118" width="190" height="52" as="geometry" />
        </mxCell>
        <mxCell id="12DK1fhjuaxPS7Sdq3nP-223" value="" style="edgeStyle=orthogonalEdgeStyle;rounded=0;orthogonalLoop=1;jettySize=auto;html=1;" edge="1" parent="1" source="12DK1fhjuaxPS7Sdq3nP-201" target="12DK1fhjuaxPS7Sdq3nP-188">
          <mxGeometry relative="1" as="geometry" />
        </mxCell>
        <mxCell id="12DK1fhjuaxPS7Sdq3nP-224" value="Text" style="edgeLabel;html=1;align=center;verticalAlign=middle;resizable=0;points=[];" vertex="1" connectable="0" parent="12DK1fhjuaxPS7Sdq3nP-223">
          <mxGeometry x="-0.7667" relative="1" as="geometry">
            <mxPoint as="offset" />
          </mxGeometry>
        </mxCell>
        <mxCell id="12DK1fhjuaxPS7Sdq3nP-201" value="Personalizacion" style="swimlane;fontStyle=1;align=center;verticalAlign=top;childLayout=stackLayout;horizontal=1;startSize=26;horizontalStack=0;resizeParent=1;resizeParentMax=0;resizeLast=0;collapsible=1;marginBottom=0;whiteSpace=wrap;html=1;" vertex="1" parent="1">
          <mxGeometry x="360" y="620" width="160" height="170" as="geometry" />
        </mxCell>
        <mxCell id="12DK1fhjuaxPS7Sdq3nP-202" value="+imagen&lt;br style=&quot;font-family: Helvetica, Arial, sans-serif; font-variant-ligatures: none; background-color: rgb(255, 255, 255);&quot;&gt;&lt;span style=&quot;font-family: Helvetica, Arial, sans-serif; font-variant-ligatures: none; background-color: rgb(255, 255, 255);&quot;&gt;+color&lt;/span&gt;&lt;br style=&quot;font-family: Helvetica, Arial, sans-serif; font-variant-ligatures: none; background-color: rgb(255, 255, 255);&quot;&gt;&lt;span style=&quot;font-family: Helvetica, Arial, sans-serif; font-variant-ligatures: none; background-color: rgb(255, 255, 255);&quot;&gt;+estampa&lt;/span&gt;&lt;br style=&quot;font-family: Helvetica, Arial, sans-serif; font-variant-ligatures: none; background-color: rgb(255, 255, 255);&quot;&gt;&lt;span style=&quot;font-family: Helvetica, Arial, sans-serif; font-variant-ligatures: none; background-color: rgb(255, 255, 255);&quot;&gt;+medida&lt;/span&gt;&lt;br style=&quot;font-family: Helvetica, Arial, sans-serif; font-variant-ligatures: none; background-color: rgb(255, 255, 255);&quot;&gt;&lt;span style=&quot;font-family: Helvetica, Arial, sans-serif; font-variant-ligatures: none; background-color: rgb(255, 255, 255);&quot;&gt;+categoria&lt;/span&gt;" style="text;strokeColor=none;fillColor=none;align=left;verticalAlign=top;spacingLeft=4;spacingRight=4;overflow=hidden;rotatable=0;points=[[0,0.5],[1,0.5]];portConstraint=eastwest;whiteSpace=wrap;html=1;" vertex="1" parent="12DK1fhjuaxPS7Sdq3nP-201">
          <mxGeometry y="26" width="160" height="94" as="geometry" />
        </mxCell>
        <mxCell id="12DK1fhjuaxPS7Sdq3nP-203" value="" style="line;strokeWidth=1;fillColor=none;align=left;verticalAlign=middle;spacingTop=-1;spacingLeft=3;spacingRight=3;rotatable=0;labelPosition=right;points=[];portConstraint=eastwest;strokeColor=inherit;" vertex="1" parent="12DK1fhjuaxPS7Sdq3nP-201">
          <mxGeometry y="120" width="160" height="8" as="geometry" />
        </mxCell>
        <mxCell id="12DK1fhjuaxPS7Sdq3nP-204" value="-diseñador" style="text;strokeColor=none;fillColor=none;align=left;verticalAlign=top;spacingLeft=4;spacingRight=4;overflow=hidden;rotatable=0;points=[[0,0.5],[1,0.5]];portConstraint=eastwest;whiteSpace=wrap;html=1;" vertex="1" parent="12DK1fhjuaxPS7Sdq3nP-201">
          <mxGeometry y="128" width="160" height="42" as="geometry" />
        </mxCell>
        <mxCell id="12DK1fhjuaxPS7Sdq3nP-225" style="edgeStyle=orthogonalEdgeStyle;rounded=0;orthogonalLoop=1;jettySize=auto;html=1;" edge="1" parent="1" source="12DK1fhjuaxPS7Sdq3nP-205">
          <mxGeometry relative="1" as="geometry">
            <mxPoint x="710" y="260" as="targetPoint" />
          </mxGeometry>
        </mxCell>
        <mxCell id="12DK1fhjuaxPS7Sdq3nP-205" value="OrdenDelProducto" style="swimlane;fontStyle=1;align=center;verticalAlign=top;childLayout=stackLayout;horizontal=1;startSize=26;horizontalStack=0;resizeParent=1;resizeParentMax=0;resizeLast=0;collapsible=1;marginBottom=0;whiteSpace=wrap;html=1;" vertex="1" parent="1">
          <mxGeometry x="630" y="395" width="160" height="150" as="geometry" />
        </mxCell>
        <mxCell id="12DK1fhjuaxPS7Sdq3nP-206" value="-ID&lt;br style=&quot;font-family: Helvetica, Arial, sans-serif; font-variant-ligatures: none; background-color: rgb(255, 255, 255);&quot;&gt;&lt;span style=&quot;font-family: Helvetica, Arial, sans-serif; font-variant-ligatures: none; background-color: rgb(255, 255, 255);&quot;&gt;-numeroDeORden&lt;/span&gt;&lt;br style=&quot;font-family: Helvetica, Arial, sans-serif; font-variant-ligatures: none; background-color: rgb(255, 255, 255);&quot;&gt;&lt;span style=&quot;font-family: Helvetica, Arial, sans-serif; font-variant-ligatures: none; background-color: rgb(255, 255, 255);&quot;&gt;-montoFinal &lt;/span&gt;" style="text;strokeColor=none;fillColor=none;align=left;verticalAlign=top;spacingLeft=4;spacingRight=4;overflow=hidden;rotatable=0;points=[[0,0.5],[1,0.5]];portConstraint=eastwest;whiteSpace=wrap;html=1;" vertex="1" parent="12DK1fhjuaxPS7Sdq3nP-205">
          <mxGeometry y="26" width="160" height="54" as="geometry" />
        </mxCell>
        <mxCell id="12DK1fhjuaxPS7Sdq3nP-207" value="" style="line;strokeWidth=1;fillColor=none;align=left;verticalAlign=middle;spacingTop=-1;spacingLeft=3;spacingRight=3;rotatable=0;labelPosition=right;points=[];portConstraint=eastwest;strokeColor=inherit;" vertex="1" parent="12DK1fhjuaxPS7Sdq3nP-205">
          <mxGeometry y="80" width="160" height="8" as="geometry" />
        </mxCell>
        <mxCell id="12DK1fhjuaxPS7Sdq3nP-208" value="-cantidadDeProducto&lt;br style=&quot;font-family: Helvetica, Arial, sans-serif; font-variant-ligatures: none; background-color: rgb(255, 255, 255);&quot;&gt;&lt;span style=&quot;font-family: Helvetica, Arial, sans-serif; font-variant-ligatures: none; background-color: rgb(255, 255, 255);&quot;&gt;-subTotalDelProducto&lt;/span&gt;&lt;br style=&quot;font-family: Helvetica, Arial, sans-serif; font-variant-ligatures: none; background-color: rgb(255, 255, 255);&quot;&gt;&lt;span style=&quot;font-family: Helvetica, Arial, sans-serif; font-variant-ligatures: none; background-color: rgb(255, 255, 255);&quot;&gt;-totalDelProducto&lt;/span&gt;" style="text;strokeColor=none;fillColor=none;align=left;verticalAlign=top;spacingLeft=4;spacingRight=4;overflow=hidden;rotatable=0;points=[[0,0.5],[1,0.5]];portConstraint=eastwest;whiteSpace=wrap;html=1;" vertex="1" parent="12DK1fhjuaxPS7Sdq3nP-205">
          <mxGeometry y="88" width="160" height="62" as="geometry" />
        </mxCell>
        <mxCell id="12DK1fhjuaxPS7Sdq3nP-227" style="edgeStyle=orthogonalEdgeStyle;rounded=0;orthogonalLoop=1;jettySize=auto;html=1;" edge="1" parent="1" source="12DK1fhjuaxPS7Sdq3nP-209" target="12DK1fhjuaxPS7Sdq3nP-216">
          <mxGeometry relative="1" as="geometry">
            <mxPoint x="560" y="760" as="targetPoint" />
            <Array as="points">
              <mxPoint x="530" y="719" />
            </Array>
          </mxGeometry>
        </mxCell>
        <mxCell id="12DK1fhjuaxPS7Sdq3nP-209" value="Tarjetas" style="swimlane;fontStyle=1;align=center;verticalAlign=top;childLayout=stackLayout;horizontal=1;startSize=26;horizontalStack=0;resizeParent=1;resizeParentMax=0;resizeLast=0;collapsible=1;marginBottom=0;whiteSpace=wrap;html=1;" vertex="1" parent="1">
          <mxGeometry x="410" y="830" width="180" height="190" as="geometry" />
        </mxCell>
        <mxCell id="12DK1fhjuaxPS7Sdq3nP-210" value="-titular&lt;br style=&quot;font-family: Helvetica, Arial, sans-serif; font-variant-ligatures: none; background-color: rgb(255, 255, 255);&quot;&gt;&lt;span style=&quot;font-family: Helvetica, Arial, sans-serif; font-variant-ligatures: none; background-color: rgb(255, 255, 255);&quot;&gt;-numeroDeTarjeta&lt;/span&gt;&lt;br style=&quot;font-family: Helvetica, Arial, sans-serif; font-variant-ligatures: none; background-color: rgb(255, 255, 255);&quot;&gt;&lt;span style=&quot;font-family: Helvetica, Arial, sans-serif; font-variant-ligatures: none; background-color: rgb(255, 255, 255);&quot;&gt;-codigoDeSeguridad&lt;/span&gt;&lt;br style=&quot;font-family: Helvetica, Arial, sans-serif; font-variant-ligatures: none; background-color: rgb(255, 255, 255);&quot;&gt;&lt;span style=&quot;font-family: Helvetica, Arial, sans-serif; font-variant-ligatures: none; background-color: rgb(255, 255, 255);&quot;&gt;-vencimiento&lt;/span&gt;" style="text;strokeColor=none;fillColor=none;align=left;verticalAlign=top;spacingLeft=4;spacingRight=4;overflow=hidden;rotatable=0;points=[[0,0.5],[1,0.5]];portConstraint=eastwest;whiteSpace=wrap;html=1;" vertex="1" parent="12DK1fhjuaxPS7Sdq3nP-209">
          <mxGeometry y="26" width="180" height="74" as="geometry" />
        </mxCell>
        <mxCell id="12DK1fhjuaxPS7Sdq3nP-211" value="" style="line;strokeWidth=1;fillColor=none;align=left;verticalAlign=middle;spacingTop=-1;spacingLeft=3;spacingRight=3;rotatable=0;labelPosition=right;points=[];portConstraint=eastwest;strokeColor=inherit;" vertex="1" parent="12DK1fhjuaxPS7Sdq3nP-209">
          <mxGeometry y="100" width="180" height="8" as="geometry" />
        </mxCell>
        <mxCell id="12DK1fhjuaxPS7Sdq3nP-212" value="-verificarTarjeta&lt;br style=&quot;font-family: Helvetica, Arial, sans-serif; font-variant-ligatures: none; background-color: rgb(255, 255, 255);&quot;&gt;&lt;span style=&quot;font-family: Helvetica, Arial, sans-serif; font-variant-ligatures: none; background-color: rgb(255, 255, 255);&quot;&gt;&lt;br&gt;-verificarNumero&lt;br&gt;DeSeguridad&lt;/span&gt;" style="text;strokeColor=none;fillColor=none;align=left;verticalAlign=top;spacingLeft=4;spacingRight=4;overflow=hidden;rotatable=0;points=[[0,0.5],[1,0.5]];portConstraint=eastwest;whiteSpace=wrap;html=1;" vertex="1" parent="12DK1fhjuaxPS7Sdq3nP-209">
          <mxGeometry y="108" width="180" height="82" as="geometry" />
        </mxCell>
        <mxCell id="12DK1fhjuaxPS7Sdq3nP-213" value="FormaDePago" style="swimlane;fontStyle=1;align=center;verticalAlign=top;childLayout=stackLayout;horizontal=1;startSize=26;horizontalStack=0;resizeParent=1;resizeParentMax=0;resizeLast=0;collapsible=1;marginBottom=0;whiteSpace=wrap;html=1;" vertex="1" parent="1">
          <mxGeometry x="630" y="600" width="160" height="140" as="geometry" />
        </mxCell>
        <mxCell id="12DK1fhjuaxPS7Sdq3nP-214" value="-ID&lt;br style=&quot;font-family: Helvetica, Arial, sans-serif; font-variant-ligatures: none; background-color: rgb(255, 255, 255);&quot;&gt;&lt;span style=&quot;font-family: Helvetica, Arial, sans-serif; font-variant-ligatures: none; background-color: rgb(255, 255, 255);&quot;&gt;-numeroDePago&lt;/span&gt;&lt;br style=&quot;font-family: Helvetica, Arial, sans-serif; font-variant-ligatures: none; background-color: rgb(255, 255, 255);&quot;&gt;&lt;span style=&quot;font-family: Helvetica, Arial, sans-serif; font-variant-ligatures: none; background-color: rgb(255, 255, 255);&quot;&gt;-monto&lt;/span&gt;&lt;br style=&quot;font-family: Helvetica, Arial, sans-serif; font-variant-ligatures: none; background-color: rgb(255, 255, 255);&quot;&gt;&lt;span style=&quot;font-family: Helvetica, Arial, sans-serif; font-variant-ligatures: none; background-color: rgb(255, 255, 255);&quot;&gt;-comprobante&lt;/span&gt;" style="text;strokeColor=none;fillColor=none;align=left;verticalAlign=top;spacingLeft=4;spacingRight=4;overflow=hidden;rotatable=0;points=[[0,0.5],[1,0.5]];portConstraint=eastwest;whiteSpace=wrap;html=1;" vertex="1" parent="12DK1fhjuaxPS7Sdq3nP-213">
          <mxGeometry y="26" width="160" height="64" as="geometry" />
        </mxCell>
        <mxCell id="12DK1fhjuaxPS7Sdq3nP-215" value="" style="line;strokeWidth=1;fillColor=none;align=left;verticalAlign=middle;spacingTop=-1;spacingLeft=3;spacingRight=3;rotatable=0;labelPosition=right;points=[];portConstraint=eastwest;strokeColor=inherit;" vertex="1" parent="12DK1fhjuaxPS7Sdq3nP-213">
          <mxGeometry y="90" width="160" height="8" as="geometry" />
        </mxCell>
        <mxCell id="12DK1fhjuaxPS7Sdq3nP-216" value="+ method(type): type" style="text;strokeColor=none;fillColor=none;align=left;verticalAlign=top;spacingLeft=4;spacingRight=4;overflow=hidden;rotatable=0;points=[[0,0.5],[1,0.5]];portConstraint=eastwest;whiteSpace=wrap;html=1;" vertex="1" parent="12DK1fhjuaxPS7Sdq3nP-213">
          <mxGeometry y="98" width="160" height="42" as="geometry" />
        </mxCell>
        <mxCell id="12DK1fhjuaxPS7Sdq3nP-228" style="edgeStyle=orthogonalEdgeStyle;rounded=0;orthogonalLoop=1;jettySize=auto;html=1;entryX=0.525;entryY=1.071;entryDx=0;entryDy=0;entryPerimeter=0;" edge="1" parent="1" source="12DK1fhjuaxPS7Sdq3nP-217" target="12DK1fhjuaxPS7Sdq3nP-216">
          <mxGeometry relative="1" as="geometry">
            <Array as="points">
              <mxPoint x="710" y="780" />
              <mxPoint x="714" y="780" />
            </Array>
          </mxGeometry>
        </mxCell>
        <mxCell id="12DK1fhjuaxPS7Sdq3nP-217" value="Transferencia" style="swimlane;fontStyle=1;align=center;verticalAlign=top;childLayout=stackLayout;horizontal=1;startSize=26;horizontalStack=0;resizeParent=1;resizeParentMax=0;resizeLast=0;collapsible=1;marginBottom=0;whiteSpace=wrap;html=1;" vertex="1" parent="1">
          <mxGeometry x="630" y="820" width="160" height="86" as="geometry" />
        </mxCell>
        <mxCell id="12DK1fhjuaxPS7Sdq3nP-218" value="-cbu" style="text;strokeColor=none;fillColor=none;align=left;verticalAlign=top;spacingLeft=4;spacingRight=4;overflow=hidden;rotatable=0;points=[[0,0.5],[1,0.5]];portConstraint=eastwest;whiteSpace=wrap;html=1;" vertex="1" parent="12DK1fhjuaxPS7Sdq3nP-217">
          <mxGeometry y="26" width="160" height="26" as="geometry" />
        </mxCell>
        <mxCell id="12DK1fhjuaxPS7Sdq3nP-219" value="" style="line;strokeWidth=1;fillColor=none;align=left;verticalAlign=middle;spacingTop=-1;spacingLeft=3;spacingRight=3;rotatable=0;labelPosition=right;points=[];portConstraint=eastwest;strokeColor=inherit;" vertex="1" parent="12DK1fhjuaxPS7Sdq3nP-217">
          <mxGeometry y="52" width="160" height="8" as="geometry" />
        </mxCell>
        <mxCell id="12DK1fhjuaxPS7Sdq3nP-220" value="+ method(type): type" style="text;strokeColor=none;fillColor=none;align=left;verticalAlign=top;spacingLeft=4;spacingRight=4;overflow=hidden;rotatable=0;points=[[0,0.5],[1,0.5]];portConstraint=eastwest;whiteSpace=wrap;html=1;" vertex="1" parent="12DK1fhjuaxPS7Sdq3nP-217">
          <mxGeometry y="60" width="160" height="26" as="geometry" />
        </mxCell>
        <mxCell id="12DK1fhjuaxPS7Sdq3nP-229" value="FormnaDeEnvio" style="swimlane;fontStyle=1;align=center;verticalAlign=top;childLayout=stackLayout;horizontal=1;startSize=26;horizontalStack=0;resizeParent=1;resizeParentMax=0;resizeLast=0;collapsible=1;marginBottom=0;whiteSpace=wrap;html=1;" vertex="1" parent="1">
          <mxGeometry x="230" y="850" width="160" height="124" as="geometry" />
        </mxCell>
        <mxCell id="12DK1fhjuaxPS7Sdq3nP-230" value="-ID&lt;br&gt;-metodo&lt;br&gt;-cantidad" style="text;strokeColor=none;fillColor=none;align=left;verticalAlign=top;spacingLeft=4;spacingRight=4;overflow=hidden;rotatable=0;points=[[0,0.5],[1,0.5]];portConstraint=eastwest;whiteSpace=wrap;html=1;" vertex="1" parent="12DK1fhjuaxPS7Sdq3nP-229">
          <mxGeometry y="26" width="160" height="64" as="geometry" />
        </mxCell>
        <mxCell id="12DK1fhjuaxPS7Sdq3nP-231" value="" style="line;strokeWidth=1;fillColor=none;align=left;verticalAlign=middle;spacingTop=-1;spacingLeft=3;spacingRight=3;rotatable=0;labelPosition=right;points=[];portConstraint=eastwest;strokeColor=inherit;" vertex="1" parent="12DK1fhjuaxPS7Sdq3nP-229">
          <mxGeometry y="90" width="160" height="8" as="geometry" />
        </mxCell>
        <mxCell id="12DK1fhjuaxPS7Sdq3nP-232" value="+ method(type): type" style="text;strokeColor=none;fillColor=none;align=left;verticalAlign=top;spacingLeft=4;spacingRight=4;overflow=hidden;rotatable=0;points=[[0,0.5],[1,0.5]];portConstraint=eastwest;whiteSpace=wrap;html=1;" vertex="1" parent="12DK1fhjuaxPS7Sdq3nP-229">
          <mxGeometry y="98" width="160" height="26" as="geometry" />
        </mxCell>
        <mxCell id="12DK1fhjuaxPS7Sdq3nP-237" style="edgeStyle=orthogonalEdgeStyle;rounded=0;orthogonalLoop=1;jettySize=auto;html=1;" edge="1" parent="1" source="12DK1fhjuaxPS7Sdq3nP-233">
          <mxGeometry relative="1" as="geometry">
            <mxPoint x="120" y="749" as="targetPoint" />
            <Array as="points">
              <mxPoint x="120" y="749" />
            </Array>
          </mxGeometry>
        </mxCell>
        <mxCell id="12DK1fhjuaxPS7Sdq3nP-233" value="Localizacion" style="swimlane;fontStyle=1;align=center;verticalAlign=top;childLayout=stackLayout;horizontal=1;startSize=26;horizontalStack=0;resizeParent=1;resizeParentMax=0;resizeLast=0;collapsible=1;marginBottom=0;whiteSpace=wrap;html=1;" vertex="1" parent="1">
          <mxGeometry x="40" y="800" width="160" height="144" as="geometry" />
        </mxCell>
        <mxCell id="12DK1fhjuaxPS7Sdq3nP-234" value="-provincia&lt;br&gt;-ciudad&lt;br&gt;-domicilio&lt;br&gt;-codigopostal&lt;br&gt;" style="text;strokeColor=none;fillColor=none;align=left;verticalAlign=top;spacingLeft=4;spacingRight=4;overflow=hidden;rotatable=0;points=[[0,0.5],[1,0.5]];portConstraint=eastwest;whiteSpace=wrap;html=1;" vertex="1" parent="12DK1fhjuaxPS7Sdq3nP-233">
          <mxGeometry y="26" width="160" height="84" as="geometry" />
        </mxCell>
        <mxCell id="12DK1fhjuaxPS7Sdq3nP-235" value="" style="line;strokeWidth=1;fillColor=none;align=left;verticalAlign=middle;spacingTop=-1;spacingLeft=3;spacingRight=3;rotatable=0;labelPosition=right;points=[];portConstraint=eastwest;strokeColor=inherit;" vertex="1" parent="12DK1fhjuaxPS7Sdq3nP-233">
          <mxGeometry y="110" width="160" height="8" as="geometry" />
        </mxCell>
        <mxCell id="12DK1fhjuaxPS7Sdq3nP-236" value="-Verificardatos" style="text;strokeColor=none;fillColor=none;align=left;verticalAlign=top;spacingLeft=4;spacingRight=4;overflow=hidden;rotatable=0;points=[[0,0.5],[1,0.5]];portConstraint=eastwest;whiteSpace=wrap;html=1;" vertex="1" parent="12DK1fhjuaxPS7Sdq3nP-233">
          <mxGeometry y="118" width="160" height="26" as="geometry" />
        </mxCell>
        <mxCell id="12DK1fhjuaxPS7Sdq3nP-238" style="edgeStyle=orthogonalEdgeStyle;rounded=0;orthogonalLoop=1;jettySize=auto;html=1;entryX=1.031;entryY=0.048;entryDx=0;entryDy=0;entryPerimeter=0;" edge="1" parent="1" source="12DK1fhjuaxPS7Sdq3nP-188" target="12DK1fhjuaxPS7Sdq3nP-234">
          <mxGeometry relative="1" as="geometry">
            <mxPoint x="210" y="800" as="targetPoint" />
          </mxGeometry>
        </mxCell>
        <mxCell id="12DK1fhjuaxPS7Sdq3nP-239" value="" style="edgeStyle=orthogonalEdgeStyle;rounded=0;orthogonalLoop=1;jettySize=auto;html=1;" edge="1" parent="1" source="12DK1fhjuaxPS7Sdq3nP-230" target="12DK1fhjuaxPS7Sdq3nP-236">
          <mxGeometry relative="1" as="geometry" />
        </mxCell>
      </root>
    </mxGraphModel>
  </diagram>
</mxfile>
